<svg aria-hidden="true" style="position: absolute; width: 0; height: 0; overflow: hidden;" version="1.1" xmlns="http://www.w3.org/2000/svg" xmlns:xlink="http://www.w3.org/1999/xlink">
<defs>
<symbol id="icon-arrow-in-down" viewBox="0 0 28 32">
<path fill="#e85802" style="fill: var(--color1, #e85802)" d="M13.971 16.406c-0.333 0-0.646-0.052-0.938-0.155s-0.563-0.281-0.813-0.533l-11.5-11.5c-0.458-0.458-0.698-1.032-0.72-1.72s0.218-1.282 0.72-1.78c0.458-0.458 1.042-0.688 1.75-0.688s1.292 0.229 1.75 0.688l9.75 9.688 9.75-9.688c0.458-0.458 1.032-0.698 1.72-0.718s1.282 0.219 1.78 0.718c0.458 0.458 0.687 1.042 0.687 1.75s-0.229 1.292-0.687 1.75l-11.5 11.5c-0.25 0.25-0.521 0.428-0.813 0.533s-0.604 0.157-0.938 0.155zM13.971 31.406c-0.333 0-0.646-0.052-0.938-0.155s-0.563-0.281-0.813-0.533l-11.5-11.5c-0.458-0.458-0.698-1.031-0.72-1.718s0.218-1.281 0.72-1.783c0.458-0.458 1.042-0.688 1.75-0.688s1.292 0.229 1.75 0.688l9.75 9.688 9.75-9.688c0.458-0.458 1.032-0.698 1.72-0.72s1.282 0.218 1.78 0.72c0.458 0.458 0.687 1.042 0.687 1.75s-0.229 1.292-0.687 1.75l-11.5 11.5c-0.25 0.25-0.521 0.428-0.813 0.533s-0.604 0.157-0.938 0.155z"></path>
</symbol>
<symbol id="icon-mdi_linkedin" viewBox="0 0 32 32">
<path fill="#e85802" style="fill: var(--color1, #e85802)" d="M25.333 4c0.707 0 1.386 0.281 1.886 0.781s0.781 1.178 0.781 1.886v18.667c0 0.707-0.281 1.386-0.781 1.886s-1.178 0.781-1.886 0.781h-18.667c-0.707 0-1.386-0.281-1.886-0.781s-0.781-1.178-0.781-1.886v-18.667c0-0.707 0.281-1.386 0.781-1.886s1.178-0.781 1.886-0.781h18.667zM24.667 24.667v-7.067c0-1.153-0.458-2.258-1.273-3.074s-1.921-1.273-3.074-1.273c-1.133 0-2.453 0.693-3.093 1.733v-1.48h-3.72v11.16h3.72v-6.573c0-1.027 0.827-1.867 1.853-1.867 0.495 0 0.97 0.197 1.32 0.547s0.547 0.825 0.547 1.32v6.573h3.72zM9.173 11.413c0.594 0 1.164-0.236 1.584-0.656s0.656-0.99 0.656-1.584c0-1.24-1-2.253-2.24-2.253-0.598 0-1.171 0.237-1.593 0.66s-0.66 0.996-0.66 1.593c0 1.24 1.013 2.24 2.253 2.24zM11.027 24.667v-11.16h-3.693v11.16h3.693z"></path>
</symbol>
<symbol id="icon-Contacts" viewBox="0 0 38 32">
<path fill="#e85802" style="fill: var(--color1, #e85802)" d="M34.080 0c1.146 0 2.244 0.455 3.055 1.265s1.265 1.909 1.265 3.055v22.090c0 1.146-0.455 2.244-1.265 3.055s-1.909 1.265-3.055 1.265h-29.76c-0.567 0-1.129-0.112-1.653-0.329s-1-0.535-1.401-0.936c-0.401-0.401-0.719-0.877-0.936-1.402s-0.329-1.086-0.329-1.653v-22.090c0-1.146 0.455-2.245 1.265-3.055s1.909-1.265 3.055-1.265h29.76zM14.88 16.32h-6.72c-0.348 0-0.684 0.126-0.946 0.355s-0.433 0.545-0.48 0.889l-0.013 0.196v0.945l0.015 0.207c0.311 2.139 2.1 3.168 4.785 3.168 2.556 0 4.301-0.933 4.731-2.868l0.054-0.298 0.015-0.207v-0.947c0-0.348-0.126-0.684-0.355-0.946s-0.545-0.433-0.889-0.48l-0.196-0.013zM30.24 17.272h-8.636l-0.196 0.013c-0.345 0.047-0.66 0.218-0.889 0.48s-0.355 0.598-0.355 0.946c0 0.348 0.126 0.684 0.355 0.946s0.544 0.433 0.889 0.48l0.196 0.013h8.636l0.196-0.013c0.345-0.047 0.66-0.218 0.889-0.48s0.355-0.598 0.355-0.946c0-0.348-0.126-0.684-0.355-0.946s-0.544-0.433-0.889-0.48l-0.196-0.013zM11.52 8.644c-0.764 0-1.496 0.303-2.036 0.844s-0.844 1.273-0.844 2.036c0 0.764 0.303 1.496 0.844 2.036s1.273 0.844 2.036 0.844c0.764 0 1.496-0.303 2.036-0.844s0.844-1.273 0.844-2.036c0-0.764-0.303-1.496-0.844-2.036s-1.273-0.844-2.036-0.844zM30.24 10.56h-8.636l-0.196 0.013c-0.345 0.047-0.66 0.218-0.889 0.48s-0.355 0.598-0.355 0.946c0 0.348 0.126 0.684 0.355 0.946s0.544 0.433 0.889 0.48l0.196 0.013h8.636l0.196-0.013c0.345-0.047 0.66-0.218 0.889-0.48s0.355-0.598 0.355-0.946c0-0.348-0.126-0.684-0.355-0.946s-0.544-0.433-0.889-0.48l-0.196-0.013z"></path>
</symbol>
<symbol id="icon-home" viewBox="0 0 35 32">
<path fill="#e85802" style="fill: var(--color1, #e85802)" d="M13.656 29.701v-9.486h7.589v9.486c0 1.044 0.854 1.897 1.897 1.897h5.692c1.044 0 1.897-0.854 1.897-1.897v-13.281h3.225c0.873 0 1.29-1.081 0.626-1.65l-15.861-14.286c-0.721-0.645-1.821-0.645-2.542 0l-15.861 14.286c-0.645 0.569-0.247 1.65 0.626 1.65h3.225v13.281c0 1.044 0.854 1.897 1.897 1.897h5.692c1.043 0 1.897-0.854 1.897-1.897z"></path>
</symbol>
<symbol id="icon-works" viewBox="0 0 33 32">
<path fill="#e85802" style="fill: var(--color1, #e85802)" d="M3.339 31.722c-0.918 0-1.705-0.327-2.359-0.982s-0.981-1.44-0.98-2.357v-18.365c0-0.918 0.327-1.705 0.982-2.359s1.44-0.981 2.357-0.98h6.678v-3.339c0-0.918 0.327-1.705 0.982-2.359s1.44-0.981 2.357-0.98h6.678c0.918 0 1.705 0.327 2.359 0.982s0.981 1.44 0.98 2.357v3.339h6.678c0.918 0 1.705 0.327 2.359 0.982s0.981 1.44 0.98 2.357v18.365c0 0.918-0.327 1.705-0.982 2.359s-1.44 0.981-2.357 0.98h-26.713zM13.357 6.678h6.678v-3.339h-6.678v3.339z"></path>
</symbol>
<symbol id="icon-instagram" viewBox="0 0 32 32">
<path fill="#e85802" style="fill: var(--color1, #e85802)" d="M16 0c-4.342 0-4.888 0.020-6.594 0.096-1.706 0.080-2.868 0.348-3.886 0.744-1.068 0.402-2.035 1.032-2.834 1.846-0.814 0.799-1.444 1.766-1.846 2.834-0.396 1.016-0.666 2.18-0.744 3.88-0.076 1.71-0.096 2.254-0.096 6.602 0 4.344 0.020 4.888 0.096 6.594 0.080 1.704 0.348 2.866 0.744 3.884 0.41 1.052 0.956 1.944 1.846 2.834 0.888 0.89 1.78 1.438 2.832 1.846 1.020 0.396 2.18 0.666 3.884 0.744 1.708 0.076 2.252 0.096 6.598 0.096s4.888-0.020 6.596-0.096c1.702-0.080 2.868-0.348 3.886-0.744 1.067-0.402 2.034-1.032 2.832-1.846 0.89-0.89 1.436-1.782 1.846-2.834 0.394-1.018 0.664-2.18 0.744-3.884 0.076-1.706 0.096-2.25 0.096-6.596s-0.020-4.89-0.096-6.598c-0.080-1.702-0.35-2.866-0.744-3.882-0.402-1.068-1.032-2.035-1.846-2.834-0.799-0.815-1.766-1.445-2.834-1.846-1.020-0.396-2.184-0.666-3.886-0.744-1.708-0.076-2.25-0.096-6.598-0.096h0.004zM14.566 2.884h1.436c4.272 0 4.778 0.014 6.464 0.092 1.56 0.070 2.408 0.332 2.972 0.55 0.746 0.29 1.28 0.638 1.84 1.198s0.906 1.092 1.196 1.84c0.22 0.562 0.48 1.41 0.55 2.97 0.078 1.686 0.094 2.192 0.094 6.462s-0.016 4.778-0.094 6.464c-0.070 1.56-0.332 2.406-0.55 2.97-0.256 0.695-0.666 1.323-1.198 1.838-0.56 0.56-1.092 0.906-1.84 1.196-0.56 0.22-1.408 0.48-2.97 0.552-1.686 0.076-2.192 0.094-6.464 0.094s-4.78-0.018-6.466-0.094c-1.56-0.072-2.406-0.332-2.97-0.552-0.695-0.256-1.324-0.665-1.84-1.196-0.532-0.516-0.943-1.145-1.2-1.84-0.218-0.562-0.48-1.41-0.55-2.97-0.076-1.686-0.092-2.192-0.092-6.466 0-4.272 0.016-4.776 0.092-6.462 0.072-1.56 0.332-2.408 0.552-2.972 0.29-0.746 0.638-1.28 1.198-1.84s1.092-0.906 1.84-1.196c0.564-0.22 1.41-0.48 2.97-0.552 1.476-0.068 2.048-0.088 5.030-0.090v0.004zM24.542 5.54c-0.252 0-0.502 0.050-0.735 0.146s-0.445 0.238-0.623 0.416c-0.178 0.178-0.32 0.39-0.416 0.623s-0.146 0.483-0.146 0.735c0 0.252 0.050 0.502 0.146 0.735s0.238 0.445 0.416 0.623c0.178 0.178 0.39 0.32 0.623 0.416s0.483 0.146 0.735 0.146c0.509 0 0.998-0.202 1.358-0.562s0.562-0.848 0.562-1.358c0-0.509-0.202-0.998-0.562-1.358s-0.848-0.562-1.358-0.562zM16.002 7.784c-1.090-0.017-2.172 0.183-3.184 0.588s-1.933 1.008-2.71 1.773c-0.777 0.765-1.394 1.676-1.815 2.682s-0.638 2.085-0.638 3.175 0.217 2.169 0.638 3.174c0.421 1.005 1.038 1.917 1.815 2.682s1.698 1.367 2.71 1.773c1.012 0.405 2.094 0.605 3.184 0.588 2.157-0.034 4.214-0.914 5.728-2.451s2.362-3.608 2.362-5.765c0-2.157-0.848-4.228-2.362-5.765s-3.571-2.418-5.728-2.452zM16.002 10.666c1.415 0 2.771 0.562 3.772 1.562s1.562 2.357 1.562 3.772c0 1.415-0.562 2.771-1.562 3.772s-2.357 1.562-3.772 1.562c-1.415 0-2.771-0.562-3.772-1.562s-1.562-2.357-1.562-3.772c0-1.415 0.562-2.771 1.562-3.772s2.357-1.562 3.772-1.562z"></path>
</symbol>
<symbol id="icon-email" viewBox="0 0 32 32">
<path fill="#e85802" style="fill: var(--color1, #e85802)" d="M26.667 5.333h-21.333c-1.467 0-2.653 1.2-2.653 2.667l-0.013 16c0 1.467 1.2 2.667 2.667 2.667h21.333c1.467 0 2.667-1.2 2.667-2.667v-16c0-1.467-1.2-2.667-2.667-2.667zM26.667 10.667l-10.667 6.667-10.667-6.667v-2.667l10.667 6.667 10.667-6.667v2.667z"></path>
</symbol>
<symbol id="icon-github-logo" viewBox="0 0 32 32">
<path fill="#e85802" style="fill: var(--color1, #e85802)" d="M16.001 2.667c-7.367 0-13.333 5.967-13.333 13.333-0.002 2.799 0.878 5.527 2.514 7.798s3.946 3.969 6.602 4.853c0.667 0.116 0.917-0.284 0.917-0.635 0-0.316-0.017-1.365-0.017-2.483-3.349 0.617-4.216-0.816-4.483-1.567-0.151-0.384-0.8-1.567-1.367-1.884-0.467-0.249-1.133-0.867-0.017-0.883 1.051-0.017 1.8 0.967 2.051 1.367 1.2 2.016 3.116 1.449 3.883 1.1 0.117-0.867 0.467-1.449 0.851-1.783-2.967-0.333-6.067-1.484-6.067-6.584 0-1.451 0.516-2.649 1.367-3.584-0.133-0.333-0.6-1.7 0.133-3.533 0 0 1.116-0.349 3.667 1.368 1.085-0.301 2.207-0.453 3.333-0.451 1.133 0 2.267 0.149 3.333 0.449 2.551-1.733 3.667-1.365 3.667-1.365 0.733 1.833 0.267 3.2 0.133 3.533 0.849 0.933 1.367 2.116 1.367 3.583 0 5.117-3.116 6.251-6.084 6.584 0.484 0.416 0.901 1.216 0.901 2.467 0 1.783-0.017 3.216-0.017 3.667 0 0.349 0.251 0.765 0.917 0.632 2.646-0.894 4.946-2.595 6.575-4.864s2.506-4.992 2.506-7.785c0-7.367-5.967-13.333-13.333-13.333h0.001z"></path>
</symbol>
<symbol id="icon-fluent-world-link-on-websites-picslinks" viewBox="0 0 32 32">
<path fill="#e85802" style="fill: var(--color1, #e85802)" d="M7.75 13.797c0.135 0 0.286 0.021 0.453 0.063s0.333 0.099 0.5 0.172c0.167 0.073 0.333 0.141 0.5 0.203s0.318 0.125 0.453 0.188l-0.25 0.031c-0.083 0.010-0.172 0.016-0.266 0.016-0.177 0-0.338-0.026-0.484-0.078s-0.281-0.12-0.406-0.203c-0.125-0.083-0.25-0.146-0.375-0.188s-0.24-0.073-0.344-0.094c-0.104 0-0.198 0.021-0.281 0.063s-0.167 0.088-0.25 0.141c0-0.042-0.036-0.063-0.109-0.063 0.073-0.073 0.208-0.13 0.406-0.172s0.349-0.068 0.453-0.078zM9.859 14.5c0.427 0 0.818 0.073 1.172 0.219-0.146 0.052-0.292 0.094-0.437 0.125s-0.297 0.052-0.453 0.062c-0.208 0-0.396-0.021-0.563-0.062 0.052-0.083 0.104-0.135 0.156-0.156s0.094-0.083 0.125-0.188zM16-0c1.469 0 2.88 0.193 4.234 0.578s2.625 0.922 3.813 1.609c1.187 0.688 2.271 1.526 3.25 2.516s1.812 2.068 2.5 3.234c0.688 1.167 1.229 2.437 1.625 3.813s0.589 2.792 0.578 4.25c0 1.469-0.193 2.88-0.578 4.234s-0.922 2.625-1.609 3.812c-0.688 1.188-1.526 2.271-2.516 3.25s-2.068 1.812-3.234 2.5-2.438 1.229-3.813 1.625c-1.375 0.396-2.792 0.589-4.25 0.578-1.469 0-2.88-0.193-4.234-0.578s-2.625-0.922-3.812-1.609c-1.188-0.688-2.271-1.526-3.25-2.516s-1.813-2.068-2.5-3.234c-0.688-1.167-1.229-2.437-1.625-3.812s-0.589-2.792-0.578-4.25c0-1.469 0.193-2.88 0.578-4.234s0.922-2.625 1.609-3.812c0.688-1.188 1.526-2.271 2.516-3.25s2.068-1.813 3.234-2.5c1.167-0.688 2.437-1.229 3.812-1.625s2.792-0.589 4.25-0.578zM27.906 8.672c-0.146-0.229-0.292-0.448-0.438-0.656s-0.297-0.422-0.453-0.641c-0.021 0.094-0.047 0.161-0.078 0.203s-0.052 0.135-0.063 0.281c0 0.094 0.036 0.182 0.109 0.266s0.167 0.167 0.281 0.25c0.115 0.083 0.229 0.146 0.344 0.188s0.213 0.078 0.297 0.109zM26.828 7.141c0 0.083-0.016 0.141-0.047 0.172h0.094c0.042 0 0.073 0.005 0.094 0.016l-0.141-0.188zM16 30c1.188 0 2.349-0.151 3.484-0.453s2.208-0.729 3.219-1.281c1.010-0.552 1.948-1.229 2.813-2.031s1.62-1.698 2.266-2.688c-0.135-0.313-0.266-0.63-0.391-0.953s-0.188-0.656-0.188-1c0-0.375 0.016-0.677 0.047-0.906s0.068-0.432 0.109-0.609 0.063-0.328 0.063-0.453c0-0.125-0.016-0.286-0.047-0.484s-0.12-0.411-0.266-0.641c-0.146-0.229-0.339-0.552-0.578-0.969 0.010-0.073 0.026-0.172 0.047-0.297s0.042-0.255 0.063-0.391c0.021-0.135 0.026-0.26 0.016-0.375s-0.036-0.213-0.078-0.297c-0.271-0.031-0.552-0.088-0.844-0.172s-0.552-0.208-0.781-0.375l0.094-0.078c-0.135 0.031-0.271 0.073-0.406 0.125s-0.266 0.109-0.391 0.172c-0.125 0.062-0.26 0.104-0.406 0.125s-0.286 0.042-0.422 0.062l-0.25-0.031 0.047-0.109c-0.146 0.042-0.302 0.094-0.469 0.156s-0.328 0.094-0.484 0.094c-0.104 0-0.255-0.036-0.453-0.109s-0.396-0.161-0.594-0.266c-0.198-0.104-0.375-0.219-0.531-0.344s-0.234-0.245-0.234-0.359l0.031-0.047c-0.052-0.062-0.12-0.12-0.203-0.172s-0.161-0.104-0.234-0.156c-0.073-0.052-0.141-0.109-0.203-0.172s-0.089-0.135-0.078-0.219l0.172-0.141-0.359-0.047-0.125-0.469c0.021 0.052 0.068 0.073 0.141 0.062s0.13-0.031 0.172-0.062l-0.563-0.297 0.391-1c-0.146-0.542-0.182-0.958-0.109-1.25s0.213-0.531 0.422-0.719c0.208-0.187 0.438-0.375 0.688-0.563s0.505-0.443 0.766-0.766l-0.047-0.187 1.031-1.25 0.234-0.031c0.292 0 0.62-0.010 0.984-0.031s0.734-0.057 1.109-0.109c0.375-0.052 0.745-0.104 1.109-0.156s0.698-0.12 1-0.203c-0.333-0.396-0.682-0.771-1.047-1.125s-0.755-0.693-1.172-1.016c-0.115 0.042-0.255 0.099-0.422 0.172s-0.333 0.167-0.5 0.281-0.297 0.24-0.391 0.375c-0.094 0.135-0.151 0.276-0.172 0.422l0.094 0.297c-0.188 0.302-0.396 0.49-0.625 0.563s-0.464 0.115-0.703 0.125c-0.24 0.010-0.49 0.010-0.75 0s-0.51 0.036-0.75 0.141l-0.25-0.531 0.234-0.906-0.266-0.391 2.703-0.844c-0.115-0.292-0.302-0.51-0.563-0.656s-0.547-0.219-0.859-0.219v-0.156l0.875-0.141c-0.969-0.479-1.974-0.844-3.016-1.094s-2.109-0.375-3.203-0.375c-0.906 0-1.802 0.089-2.688 0.266s-1.74 0.432-2.563 0.766c-0.823 0.333-1.62 0.75-2.391 1.25s-1.474 1.063-2.109 1.688c0.271 0 0.479 0.068 0.625 0.203s0.281 0.286 0.406 0.453c0.125 0.167 0.255 0.318 0.391 0.453s0.318 0.208 0.547 0.219l0.25-0.188-0.031-0.344 0.516-0.734-0.406-1.156c0.052-0.031 0.13-0.083 0.234-0.156s0.193-0.109 0.266-0.109c0.312 0 0.552 0.016 0.719 0.047s0.313 0.089 0.438 0.172c0.125 0.083 0.234 0.203 0.328 0.359s0.24 0.354 0.438 0.594l0.563-0.438c0.104 0.042 0.271 0.109 0.5 0.203s0.464 0.208 0.703 0.344c0.24 0.135 0.443 0.276 0.609 0.422s0.255 0.281 0.266 0.406c0 0.156-0.057 0.281-0.172 0.375s-0.266 0.172-0.453 0.234c-0.188 0.062-0.38 0.109-0.578 0.141s-0.396 0.073-0.594 0.125c-0.198 0.052-0.349 0.104-0.453 0.156s-0.167 0.141-0.187 0.266l0.906 0.297c-0.208 0.177-0.432 0.338-0.672 0.484s-0.49 0.281-0.75 0.406l0.063 0.266-1.438 0.563v0.438l-0.109 0.047 0.078-0.547-0.062-0.016c-0.073 0-0.115 0.016-0.125 0.047s-0.016 0.068-0.016 0.109 0.010 0.083 0.031 0.125c0.021 0.042 0.026 0.073 0.016 0.094l-0.203-0.109 0.031 0.062c0 0.031 0.016 0.078 0.047 0.141s0.073 0.12 0.125 0.172 0.094 0.104 0.125 0.156c0.031 0.052 0.052 0.078 0.063 0.078 0 0.031-0.021 0.063-0.063 0.094s-0.094 0.052-0.156 0.063c-0.063 0.010-0.104 0.026-0.125 0.047s-0.021 0.026 0 0.016c0.146 0 0.177 0.010 0.094 0.031s-0.213 0.073-0.391 0.156-0.339 0.203-0.484 0.359c-0.146 0.156-0.229 0.385-0.25 0.688 0 0.177 0.005 0.349 0.016 0.516s0.005 0.339-0.016 0.516c-0.146-0.396-0.365-0.698-0.656-0.906s-0.646-0.313-1.062-0.313l-0.672 0.062 0.328 0.219c-0.177-0.021-0.359-0.042-0.547-0.062s-0.38-0.026-0.578-0.016c-0.198 0.010-0.375 0.052-0.531 0.125s-0.313 0.182-0.469 0.328l-0.094 0.703c0 0.333 0.073 0.604 0.219 0.812s0.401 0.318 0.766 0.328c0.313 0 0.62-0.047 0.922-0.141s0.599-0.203 0.891-0.328c-0.094 0.229-0.198 0.448-0.313 0.656s-0.198 0.438-0.25 0.688l0.203 0.094c0.25-0.167 0.479-0.193 0.688-0.078s0.411 0.281 0.609 0.5c0.198 0.219 0.401 0.443 0.609 0.672s0.432 0.396 0.672 0.5l-0.531 0.281-1.25-0.703c0.010 0.021 0.021 0.068 0.031 0.141s0.005 0.088-0.016 0.047l-0.563-0.953c-0.333-0.010-0.688-0.063-1.063-0.156s-0.755-0.219-1.141-0.375c-0.385-0.156-0.745-0.328-1.078-0.516s-0.641-0.385-0.922-0.594l-0.109 1.672c0 1.271 0.172 2.51 0.516 3.719s0.828 2.344 1.453 3.406 1.391 2.031 2.297 2.906c0.906 0.875 1.911 1.62 3.016 2.234-0.052-0.219-0.057-0.438-0.016-0.656s0.094-0.438 0.156-0.656c0.063-0.219 0.13-0.438 0.203-0.656s0.109-0.443 0.109-0.672c0-0.333-0.052-0.682-0.156-1.047s-0.229-0.734-0.375-1.109c-0.146-0.375-0.307-0.745-0.484-1.109s-0.318-0.708-0.422-1.031c-0.104-0.323-0.188-0.625-0.25-0.906s-0.031-0.526 0.094-0.734l-0.234-0.109c0.063-0.146 0.146-0.286 0.25-0.422s0.213-0.271 0.328-0.406c0.115-0.135 0.203-0.281 0.266-0.438s0.099-0.313 0.109-0.469c0-0.104-0.021-0.214-0.063-0.328s-0.078-0.224-0.109-0.328l0.328 0.078c0.177-0.406 0.417-0.682 0.719-0.828s0.682-0.224 1.141-0.234c0.052 0 0.161 0.021 0.328 0.062s0.344 0.099 0.531 0.172c0.187 0.073 0.365 0.13 0.531 0.172s0.292 0.083 0.375 0.125c0 0.073 0.042 0.12 0.125 0.141s0.13 0.057 0.141 0.109l-0.031 0.125c0.031 0.010 0.104 0.047 0.219 0.109s0.24 0.141 0.375 0.234c0.135 0.094 0.255 0.177 0.359 0.25s0.177 0.13 0.219 0.172c0.187 0 0.443 0.062 0.766 0.187s0.677 0.281 1.063 0.469c0.385 0.187 0.766 0.411 1.141 0.672s0.729 0.521 1.063 0.781 0.589 0.521 0.766 0.781c0.177 0.26 0.281 0.49 0.313 0.688l-0.531 0.563c0.042 0.531 0.005 0.938-0.109 1.219s-0.292 0.516-0.531 0.703c-0.24 0.188-0.516 0.344-0.828 0.469s-0.651 0.302-1.016 0.531c0 0.208-0.052 0.432-0.156 0.672s-0.234 0.469-0.391 0.688c-0.156 0.219-0.344 0.401-0.563 0.547s-0.437 0.219-0.656 0.219l-0.656-0.5c0.021 0.021 0.021 0.057 0 0.109s-0.047 0.063-0.078 0.031c0.104 0.198 0.13 0.427 0.078 0.688s-0.141 0.526-0.266 0.797c-0.125 0.271-0.266 0.526-0.422 0.766s-0.297 0.443-0.422 0.609c0.563 0.146 1.125 0.255 1.688 0.328s1.13 0.109 1.703 0.109z"></path>
</symbol>
<symbol id="icon-logo-portfolio-works-developer-logo-header" viewBox="0 0 211 32">
<path fill="#000" style="fill: var(--color1, #000)" d="M0.941 22.515c-0.526 0-0.794-0.257-0.794-0.77v-16.44c0-0.513 0.269-0.77 0.794-0.77h3.985c2.066 0 3.655 0.721 4.767 2.176 1.1 1.442 1.662 3.704 1.662 6.772s-0.55 5.341-1.662 6.82c-1.1 1.479-2.689 2.225-4.767 2.225h-3.985zM2.457 20.559h2.469c1.406 0 2.432-0.574 3.092-1.723s0.99-2.934 0.99-5.366c0-2.396-0.33-4.156-0.99-5.293-0.66-1.125-1.687-1.699-3.092-1.699h-2.469v14.081z"></path>
<path fill="#000" style="fill: var(--color1, #000)" d="M18.738 22.662c-1.711 0-3.007-0.55-3.875-1.675-0.868-1.112-1.308-2.811-1.308-5.109 0-2.274 0.428-4.009 1.283-5.183 0.856-1.186 2.115-1.772 3.777-1.772 1.491 0 2.616 0.574 3.361 1.723 0.758 1.149 1.125 2.811 1.125 5.011 0 0.684-0.306 1.027-0.904 1.027h-6.393c0.049 1.418 0.318 2.469 0.795 3.129 0.477 0.672 1.247 1.002 2.286 1.002 0.599 0 1.125-0.086 1.589-0.257s0.843-0.342 1.149-0.501c0.293-0.159 0.489-0.244 0.574-0.244 0.171 0 0.318 0.147 0.428 0.452s0.171 0.55 0.171 0.758c0 0.159-0.183 0.367-0.538 0.623-0.354 0.269-0.843 0.501-1.455 0.709s-1.296 0.306-2.066 0.306zM15.829 14.827h5.085c0-2.701-0.794-4.058-2.384-4.058-1.748 0-2.64 1.357-2.701 4.058z"></path>
<path fill="#000" style="fill: var(--color1, #000)" d="M28.602 22.564c-0.22 0-0.416-0.037-0.587-0.098-0.171-0.073-0.281-0.22-0.33-0.44l-3.19-12.199c-0.012-0.073-0.024-0.134-0.037-0.196s-0.012-0.11-0.012-0.171c0-0.293 0.33-0.44 1.002-0.44h0.33c0.244 0 0.44 0.024 0.611 0.086s0.269 0.171 0.306 0.318l2.469 10.817h0.098l2.359-10.817c0.037-0.159 0.147-0.257 0.318-0.318 0.183-0.061 0.391-0.086 0.623-0.086h0.306c0.611 0 0.929 0.147 0.929 0.44 0 0.049 0 0.098 0 0.159 0 0.049-0.012 0.122-0.049 0.208l-3.19 12.199c-0.049 0.22-0.159 0.367-0.318 0.44s-0.354 0.098-0.574 0.098h-1.063z"></path>
<path fill="#000" style="fill: var(--color1, #000)" d="M40.458 22.662c-1.711 0-3.007-0.55-3.875-1.675-0.868-1.112-1.308-2.811-1.308-5.109 0-2.274 0.428-4.009 1.283-5.183 0.856-1.186 2.115-1.772 3.777-1.772 1.491 0 2.616 0.574 3.361 1.723 0.758 1.149 1.125 2.811 1.125 5.011 0 0.684-0.306 1.027-0.904 1.027h-6.393c0.049 1.418 0.318 2.469 0.794 3.129 0.477 0.672 1.247 1.002 2.286 1.002 0.599 0 1.125-0.086 1.589-0.257s0.843-0.342 1.149-0.501c0.293-0.159 0.489-0.244 0.574-0.244 0.171 0 0.318 0.147 0.428 0.452s0.171 0.55 0.171 0.758c0 0.159-0.183 0.367-0.538 0.623-0.354 0.269-0.843 0.501-1.455 0.709-0.599 0.208-1.296 0.306-2.066 0.306zM37.562 14.827h5.085c0-2.701-0.794-4.058-2.383-4.058-1.748 0-2.652 1.357-2.701 4.058z"></path>
<path fill="#000" style="fill: var(--color1, #000)" d="M50.481 22.662c-0.354 0-0.758-0.073-1.198-0.232s-0.819-0.452-1.137-0.917c-0.33-0.452-0.489-1.112-0.489-1.992v-15.768c0-0.183 0.073-0.33 0.22-0.428s0.403-0.147 0.782-0.147h0.208c0.379 0 0.636 0.049 0.782 0.147s0.22 0.232 0.22 0.428v15.511c0 0.599 0.061 1.002 0.196 1.222s0.379 0.318 0.758 0.318c0.306 0 0.538-0.024 0.684-0.061s0.257-0.061 0.342-0.061c0.122 0 0.208 0.086 0.269 0.257s0.098 0.354 0.11 0.55c0.012 0.196 0.024 0.342 0.024 0.428 0 0.171-0.098 0.318-0.306 0.428s-0.44 0.196-0.721 0.244c-0.281 0.049-0.526 0.073-0.746 0.073z"></path>
<path fill="#000" style="fill: var(--color1, #000)" d="M58.438 22.662c-1.613 0-2.836-0.587-3.691-1.748-0.843-1.161-1.271-2.848-1.271-5.060 0-2.225 0.428-3.936 1.271-5.134s2.078-1.797 3.691-1.797c1.589 0 2.799 0.599 3.63 1.785s1.247 2.909 1.247 5.146c0 2.225-0.416 3.911-1.235 5.073s-2.029 1.736-3.642 1.736zM58.39 20.816c0.904 0 1.577-0.403 2.017-1.222s0.66-2.078 0.66-3.789c0-1.711-0.22-2.982-0.66-3.801s-1.112-1.235-2.017-1.235c-0.929 0-1.601 0.403-2.017 1.222s-0.623 2.090-0.623 3.814c0 1.711 0.208 2.97 0.623 3.789s1.088 1.222 2.017 1.222z"></path>
<path fill="#000" style="fill: var(--color1, #000)" d="M67.251 27.856c-0.648 0-0.978-0.183-0.978-0.562v-14.362c0-1.063-0.049-1.833-0.134-2.322s-0.134-0.819-0.134-0.99c0-0.183 0.183-0.318 0.538-0.403s0.672-0.11 0.953-0.11c0.22 0 0.379 0.11 0.477 0.33s0.196 0.623 0.318 1.21c0.416-0.599 0.88-1.039 1.43-1.308 0.538-0.269 1.1-0.416 1.687-0.416 0.843 0 1.552 0.281 2.151 0.856s1.063 1.369 1.406 2.383c0.33 1.014 0.501 2.2 0.501 3.532 0 2.225-0.391 3.948-1.186 5.146-0.782 1.21-1.809 1.809-3.080 1.809-0.636 0-1.161-0.122-1.577-0.367s-0.794-0.562-1.137-0.941v5.928c0 0.379-0.318 0.562-0.953 0.562h-0.281zM70.637 20.767c0.868 0 1.516-0.44 1.943-1.308 0.416-0.868 0.623-2.127 0.623-3.777 0-1.54-0.196-2.738-0.574-3.594-0.391-0.856-0.978-1.283-1.76-1.283-0.892 0-1.687 0.587-2.383 1.772v7.041c0.599 0.758 1.32 1.149 2.151 1.149z"></path>
<path fill="#000" style="fill: var(--color1, #000)" d="M82.921 22.662c-1.711 0-3.007-0.55-3.875-1.675-0.868-1.112-1.308-2.811-1.308-5.109 0-2.274 0.428-4.009 1.283-5.183 0.856-1.186 2.115-1.772 3.777-1.772 1.491 0 2.616 0.574 3.361 1.723 0.758 1.149 1.125 2.811 1.125 5.011 0 0.684-0.306 1.027-0.904 1.027h-6.393c0.049 1.418 0.318 2.469 0.794 3.129 0.477 0.672 1.247 1.002 2.286 1.002 0.599 0 1.125-0.086 1.589-0.257s0.843-0.342 1.149-0.501c0.293-0.159 0.489-0.244 0.574-0.244 0.171 0 0.318 0.147 0.428 0.452s0.171 0.55 0.171 0.758c0 0.159-0.183 0.367-0.538 0.623-0.354 0.269-0.843 0.501-1.455 0.709s-1.296 0.306-2.066 0.306zM80.012 14.827h5.085c0-2.701-0.794-4.058-2.383-4.058-1.748 0-2.652 1.357-2.701 4.058z"></path>
<path fill="#000" style="fill: var(--color1, #000)" d="M91.135 22.564c-0.684 0-1.027-0.183-1.027-0.562v-9.070c0-1.063-0.049-1.833-0.134-2.322s-0.134-0.819-0.134-0.99c0-0.183 0.183-0.318 0.538-0.403s0.672-0.11 0.953-0.11c0.244 0 0.403 0.122 0.501 0.367s0.196 0.697 0.318 1.345c0.44-0.599 0.953-1.063 1.54-1.406 0.587-0.33 1.137-0.501 1.675-0.501 0.293 0 0.489 0.073 0.587 0.208s0.159 0.342 0.159 0.611c0 0.379-0.049 0.709-0.159 0.99-0.098 0.281-0.232 0.428-0.391 0.428-0.122 0-0.257-0.024-0.428-0.061-0.159-0.037-0.403-0.061-0.733-0.061-0.477 0-0.917 0.147-1.308 0.452s-0.66 0.672-0.794 1.112v9.412c0 0.379-0.354 0.562-1.076 0.562h-0.086z"></path>
<path fill="#082cff" style="fill: var(--color2, #082cff)" d="M209.638 3.569h-95.438c-0.99 0-1.785-0.794-1.785-1.785s0.807-1.785 1.785-1.785h95.438c0.99 0 1.785 0.794 1.785 1.785s-0.794 1.785-1.785 1.785z"></path>
<path fill="#bf4000" style="fill: var(--color3, #bf4000)" d="M181.207 18.506h-67.007c-0.99 0-1.785-0.794-1.785-1.785s0.794-1.785 1.785-1.785h66.995c0.99 0 1.785 0.794 1.785 1.785 0.012 0.99-0.794 1.785-1.772 1.785z"></path>
<path fill="#082cff" style="fill: var(--color2, #082cff)" d="M145.552 32h-31.352c-0.99 0-1.785-0.794-1.785-1.785s0.794-1.785 1.785-1.785h31.34c0.99 0 1.785 0.794 1.785 1.785 0.012 0.99-0.794 1.785-1.772 1.785z"></path>
</symbol>
</defs>
</svg>
